# xmcd CD database file
#
# Track frame offsets:
#	150
#	20962
#	32947
#
# Disc length: 712 seconds
#
# Revision: 1
# Processed by: cddbd v1.5.1PL0 Copyright (c) Steve Scherf et al.
# Submitted via: CDex 1.51
#
DISCID=2402c603
DTITLE=TOMMY HEAVENLY6 - Hey My Friend (EP)
DYEAR=2004
DGENRE=Pop
TTITLE0=Hey My Friend
TTITLE1=Roller Coaster Ride →
TTITLE2=Hey My Friend (Original Instrumental)
EXTD=YEAR: 2004
EXTT0=
EXTT1=
EXTT2=
PLAYORDER=
